<svg version="1.1" class="desktop-outline" id="Layer_1" xmlns="http://www.w3.org/2000/svg" xmlns:xlink="http://www.w3.org/1999/xlink" x="0px" y="0px" viewBox="0 0 1740.8 211.4" style="enable-background:new 0 0 1740.8 211.4;" xml:space="preserve">
    <style type="text/css">
        .st0{enable-background:new    ;}
        .st1{fill:none;stroke:#FFFFFF;stroke-width:2;}
    </style><style class="darkreader darkreader--sync" media="screen"></style>
    <g class="st0" id="animated-letters-desktop">
        <path class="animate-letter" d="M6,197.3V13.4h30.9l31.8,86.3l32.1-86.3h30.9v183.9h-33v-104l-19.6,61.2H58.7L38.8,93.3v104H6z" style="stroke-dashoffset: 0; stroke-dasharray: none;"></path>
        <path class="animate-letter" d="M191.8,13.7v183.6h-33V13.7H191.8z" style="stroke-dashoffset: 0; stroke-dasharray: none;"></path>
        <path class="animate-letter" d="M217.1,88.7v-52c0-5.8,2.4-11.6,6.4-15.9c4.3-4.6,10.4-7.3,16.8-7.3h54.5c6.4,0,12.2,2.8,16.8,7.3
            c4,4.3,6.1,10.1,6.1,15.9v33H285V46.4h-34.9v36.1l50.2,15.9c4,1.2,7.6,3.4,10.4,6.4c4.6,4.6,7,10.7,7,17.4V174
            c0,6.1-2.1,11.6-6.1,15.9c-4.6,4.6-10.7,7.3-17.1,7.3H240c-5.8,0-11.6-2.4-15.9-6.4c-4.6-4.3-7-10.4-7-16.5V141h33v23.3H285v-36.1
            l-50.5-15.6c-4-1.5-7.6-3.7-10.4-6.7C219.8,100.9,217.1,95.1,217.1,88.7z" style="stroke-dashoffset: 0; stroke-dasharray: none;"></path>
        <path class="animate-letter" d="M341.2,88.7v-52c0-5.8,2.4-11.6,6.4-15.9c4.3-4.6,10.4-7.3,16.8-7.3h54.5c6.4,0,12.2,2.8,16.8,7.3
            c4,4.3,6.1,10.1,6.1,15.9v33h-32.7V46.4h-34.9v36.1l50.2,15.9c4,1.2,7.6,3.4,10.4,6.4c4.6,4.6,7,10.7,7,17.4V174
            c0,6.1-2.1,11.6-6.1,15.9c-4.6,4.6-10.7,7.3-17.1,7.3h-54.5c-5.8,0-11.6-2.4-15.9-6.4c-4.6-4.3-7-10.4-7-16.5V141h33v23.3h34.9
            v-36.1l-50.5-15.6c-4-1.5-7.6-3.7-10.4-6.7C343.9,100.9,341.2,95.1,341.2,88.7z" style="stroke-dashoffset: 0; stroke-dasharray: none;"></path>
        <path class="animate-letter" d="M500.2,13.7v183.6h-33V13.7H500.2z" style="stroke-dashoffset: 0; stroke-dasharray: none;"></path>
        <path class="animate-letter" d="M549.5,13.4h54.8c6.4,0,12.2,2.8,16.5,7.3h0.3c4,4.3,6.1,10.1,6.1,15.9V174c0,6.1-2.1,11.6-6.1,15.9l-0.3,0.3
            c-4.3,4.3-10.4,7-16.5,7h-54.8c-5.8,0-11.6-2.4-15.9-6.4c-4.3-4.3-7-10.4-7-16.5V36.7c0-5.8,2.4-11.6,6.4-15.9
            C537.3,16.2,543.4,13.4,549.5,13.4z M594.5,46.4h-34.9v117.8h34.9V46.4z" style="stroke-dashoffset: 0; stroke-dasharray: none;"></path>
        <path class="animate-letter" d="M653.7,197.3V13.4h31.2l44.7,102.2V13.7h33v183.6h-30.9l-45-103.1v103.1H653.7z" style="stroke-dashoffset: 0; stroke-dasharray: none;"></path>
        <path class="animate-letter" d="M933.9,137.6h-45v59.7h-33V13.7l78-0.3c6.4,0,12.5,2.8,16.8,7.3c4.3,4.3,6.4,10.1,6.4,15.9v77.7
            c0,5.8-2.1,11.6-6.4,15.9C946.4,134.9,940.3,137.6,933.9,137.6z M888.9,104.6h35.2V46.4h-35.2V104.6z" style="stroke-dashoffset: 0; stroke-dasharray: none;"></path>
        <path class="animate-letter" d="M1001.5,13.4h54.8c6.4,0,12.2,2.8,16.5,7.3h0.3c4,4.3,6.1,10.1,6.1,15.9V174c0,6.1-2.1,11.6-6.1,15.9l-0.3,0.3
            c-4.3,4.3-10.4,7-16.5,7h-54.8c-5.8,0-11.6-2.4-15.9-6.4c-4.3-4.3-7-10.4-7-16.5V36.7c0-5.8,2.4-11.6,6.4-15.9
            C989.3,16.2,995.4,13.4,1001.5,13.4z M1046.5,46.4h-34.9v117.8h34.9V46.4z" style="stroke-dashoffset: 0; stroke-dasharray: none;"></path>
        <path class="animate-letter" d="M1103.8,88.7v-52c0-5.8,2.4-11.6,6.4-15.9c4.3-4.6,10.4-7.3,16.8-7.3h54.5c6.4,0,12.2,2.8,16.8,7.3
            c4,4.3,6.1,10.1,6.1,15.9v33h-32.7V46.4h-34.9v36.1l50.2,15.9c4,1.2,7.6,3.4,10.4,6.4c4.6,4.6,7,10.7,7,17.4V174
            c0,6.1-2.1,11.6-6.1,15.9c-4.6,4.6-10.7,7.3-17.1,7.3h-54.5c-5.8,0-11.6-2.4-15.9-6.4c-4.6-4.3-7-10.4-7-16.5V141h33v23.3h34.9
            v-36.1l-50.5-15.6c-4-1.5-7.6-3.7-10.4-6.7C1106.5,100.9,1103.8,95.1,1103.8,88.7z" style="stroke-dashoffset: 0; stroke-dasharray: none;"></path>
        <path class="animate-letter" d="M1227.9,88.7v-52c0-5.8,2.4-11.6,6.4-15.9c4.3-4.6,10.4-7.3,16.8-7.3h54.5c6.4,0,12.2,2.8,16.8,7.3
            c4,4.3,6.1,10.1,6.1,15.9v33h-32.7V46.4h-34.9v36.1l50.2,15.9c4,1.2,7.6,3.4,10.4,6.4c4.6,4.6,7,10.7,7,17.4V174
            c0,6.1-2.1,11.6-6.1,15.9c-4.6,4.6-10.7,7.3-17.1,7.3h-54.5c-5.8,0-11.6-2.4-15.9-6.4c-4.6-4.3-7-10.4-7-16.5V141h33v23.3h34.9
            v-36.1l-50.5-15.6c-4-1.5-7.6-3.7-10.4-6.7C1230.6,100.9,1227.9,95.1,1227.9,88.7z" style="stroke-dashoffset: 0; stroke-dasharray: none;"></path>
        <path class="animate-letter" d="M1386.9,13.7v183.6h-33V13.7H1386.9z" style="stroke-dashoffset: 0; stroke-dasharray: none;"></path>
        <path class="animate-letter" d="M1514.7,85.3c0,7.3-2.1,14.1-6.1,20.2c4,5.8,6.1,12.9,6.1,19.9V174c0,6.1-2.1,11.6-6.4,15.9
            c-4.3,4.6-10.4,7.3-16.8,7.3h-77.4V13.7l77.4-0.3c6.4,0,12.5,2.8,16.8,7.3c4.3,4.3,6.4,10.1,6.4,15.9V85.3z M1481.7,46.4h-34.6V89
            h30.9c0.9,0,2.1-0.3,2.8-1.2c0.6-0.6,0.9-1.5,0.9-2.4V46.4z M1481.7,125.4c0-0.9-0.3-1.8-0.9-2.4c-0.6-0.6-1.5-0.9-2.4-0.9h-31.2
            v42.2h34.6V125.4z" style="stroke-dashoffset: 0; stroke-dasharray: none;"></path>
        <path class="animate-letter" d="M1573.4,13.7v150.5h54.8v33h-87.5V13.7H1573.4z" style="stroke-dashoffset: 0; stroke-dasharray: none;"></path>
        <path class="animate-letter" d="M1677.1,46.4V89h47.4v33h-47.4v42.2h58.7v33h-91.5V13.7h91.5v32.7H1677.1z" style="stroke-dashoffset: 0; stroke-dasharray: none;"></path>
    </g>
</svg>