<svg xmlns="http://www.w3.org/2000/svg" class="logo " width="239.515" height="47.147" viewBox="0 0 239.515 47.147">
    <g id="Logo" transform="translate(-133.982 -109.802)">
        <g id="Group_10" data-name="Group 10" transform="translate(133.982 109.802)">
            <g id="Group_9" data-name="Group 9">
                <g id="Group_8" data-name="Group 8">
                    <path id="Path_1" class="logo__icon" data-name="Path 1" d="M151.176,110.331l13.694,14.606a.314.314,0,0,0,.544-.215v-6.67a.393.393,0,0,1,.393-.393h6.406a1.058,1.058,0,0,1,1.059,1.058v24.141a.306.306,0,0,1-.53.208l-30.668-33.014a.785.785,0,0,0-.575-.251h-7.122a.393.393,0,0,0-.393.393v41.7a5.054,5.054,0,0,0,5.054,5.055h24.669a.314.314,0,0,0,.229-.529l-13.694-14.606a.314.314,0,0,0-.543.215v6.67a.393.393,0,0,1-.393.393H142.9a1.058,1.058,0,0,1-1.058-1.058V123.946a.306.306,0,0,1,.529-.208L172.99,156.7a.786.786,0,0,0,.576.251h7.169a.393.393,0,0,0,.393-.393V114.9a5.1,5.1,0,0,0-5.1-5.1H151.4A.314.314,0,0,0,151.176,110.331Z" transform="translate(-133.982 -109.802)" fill="#b10023"></path>
                </g>
            </g>
        </g>
        <g id="Group_13" data-name="Group 13" transform="translate(204.737 117.389)">
            <g id="Fz2aSO" transform="translate(0 0.605)">
                <g id="Group_11" data-name="Group 11">
                    <path id="Path_2" class="logo__text" data-name="Path 2" d="M468.428,142.818a9.721,9.721,0,0,1,3.34,5.122c1.409,6.548-2.732,11.6-9.591,11.662-5.235.046-10.471,0-15.707,0-2.2,0-2.445.041-2.8-.313-.3-.3-.269-.518-.269-2.72,0-5.022.023-10.045-.029-15.066-.011-1.055.328-1.307,1.335-1.3,5.271.046,10.542,0,15.814.032,1.448.008,2.628-.372,3.166-1.824a3.907,3.907,0,0,0-.687-4.288,3.214,3.214,0,0,0-2.1-.77c-5.413-.062-10.827-.054-16.241-.016-.947.007-1.283-.218-1.283-1.239,0-1.41.017-2.67.017-4.166-.007-.561.167-.871.783-.866,6.265.053,12.536-.046,18.793.2a7.918,7.918,0,0,1,7.238,5.334c1.276,3.148,1.2,6.247-.95,9.083C468.983,142.051,468.719,142.422,468.428,142.818Zm-11.681,3.543c-1.814,0-3.627.021-5.44-.011-.647-.011-.887.222-.878.864.024,1.706.027,3.413,0,5.119-.011.689.249.944.939.94,3.52-.021,7.04.008,10.56-.02a2.436,2.436,0,0,0,2.688-1.963,7.769,7.769,0,0,0-.17-3.305,2.278,2.278,0,0,0-2.471-1.63C460.232,146.38,458.489,146.362,456.747,146.362Z" transform="translate(-366.277 -127.011)" fill="#fff"></path>
                    <path id="Path_3" class="logo__text" data-name="Path 3" d="M312.316,159.373h-5.389c-2.814,0-2.771-.031-4.422-2.336-4.326-6.044-8.693-12.058-13.047-18.082a3.436,3.436,0,0,0-.354-.327v1.162q0,9.024,0,18.047c0,1.535,0,1.536-1.583,1.537-1.482,0-2.81.016-4.378.016-.846.033-1.1-.266-1.092-1.1.03-5.589.015-11.177.015-16.766,0-4.414.029-8.828-.022-13.241-.012-1.007.328-1.294,1.285-1.257,1.6.062,3.207-.044,4.8.053a2.2,2.2,0,0,1,1.484.748Z" transform="translate(-282.042 -126.985)" fill="#fff"></path>
                    <path id="Path_4" class="logo__text" data-name="Path 4" d="M516.835,143.111c0-4.95.021-9.9-.019-14.851-.008-.916.224-1.234,1.188-1.234l4.914,0c.9,0,1.148.307,1.145,1.177-.027,7.835-.015,15.67-.015,23.505,0,1.53,0,1.531,1.508,1.531,4.808,0,9.616.021,14.424-.017.885-.007,1.142.254,1.142,1.146,0,1.282,0,2.591,0,3.951.047.885-.314,1.068-1.115,1.066q-11.058-.035-22.116,0c-.864,0-1.077-.292-1.071-1.109C516.85,153.226,516.835,148.168,516.835,143.111Z" transform="translate(-404.623 -126.987)" fill="#fff"></path>
                    <path id="Path_5" class="logo__text" data-name="Path 5" d="M605.252,154.238c.775-.054,1.09.227,1.062,1.031,0,1.358,0,2.614,0,4.162,0,.878-.316,1.088-1.119,1.082-4.056-.027-8.113-.012-12.17-.012-3.95,0-7.9-.023-11.849.018-.945.01-1.283-.225-1.283-1.248,0-1.268,0-2.64,0-3.841,0-.961.307-1.205,1.227-1.2Z" transform="translate(-437.559 -141.19)" fill="#fff"></path>
                    <path id="Path_6" class="logo__text" data-name="Path 6" d="M593.031,188.01c-3.984,0-7.968-.031-11.951.022-.966.013-1.232-.3-1.182-1.218,0-1.337,0-2.485,0-3.84-.031-.8.182-1.129,1.063-1.125q12.165.045,24.329.008c.7,0,1.017.169,1.017.95,0,1.45,0,2.886,0,4.267.027.781-.3.951-1.01.946C601.211,188,597.121,188.01,593.031,188.01Z" transform="translate(-437.556 -155.612)" fill="#fff"></path>
                    <path id="Path_7" class="logo__text" data-name="Path 7" d="M337.537,150.529c-.336-.386-.7-.962-.875-1.2-1.885-2.631-3.795-5.245-5.618-7.918a3.384,3.384,0,0,1-.647-2.046c-.062-3.738,0-7.479-.05-11.218-.012-.946.276-1.2,1.213-1.2,1.869,0,3.4.01,5.021.01.679-.013.956.211.955.914Z" transform="translate(-307.263 -126.944)" fill="#fff"></path>
                    <path id="Path_8" class="logo__text" data-name="Path 8" d="M605.252,127.046c.775-.054,1.09.227,1.062,1.032,0,1.357,0,2.614,0,4.162,0,.878-.316,1.088-1.119,1.082-4.056-.027-8.113-.012-12.17-.012-3.95,0-7.9-.024-11.849.018-.945.01-1.283-.225-1.283-1.249,0-1.268,0-2.64,0-3.841,0-.961.307-1.205,1.227-1.2Z" transform="translate(-437.559 -126.993)" fill="#fff"></path>
                </g>
            </g>
            <g id="Group_12" data-name="Group 12" transform="translate(36.521)">
                <path id="Path_9" class="logo__text" data-name="Path 9" d="M375.312,125.679a16.714,16.714,0,1,1-16.847,16.713A16.5,16.5,0,0,1,375.312,125.679Zm0,27.126c5.81,0,9.921-4.647,9.921-10.412,0-5.72-4.112-10.412-9.921-10.412s-9.921,4.692-9.921,10.412C365.391,148.157,369.5,152.8,375.312,152.8Z" transform="translate(-358.465 -125.679)" fill="#fff"></path>
            </g>
        </g>
    </g>
</svg>